<svg id="Capa_1" data-name="Capa 1" xmlns="http://www.w3.org/2000/svg" viewBox="0 0 129.84001 83.04"><defs><style>.cls-1{fill:#fdfdfd;}</style></defs><title>midyai logo negro</title><path class="cls-1" d="M971.10546,501.72H1017.34v83.04H887.5v-9.6a.56648.56648,0,0,1,.34711-.12838c3.19276.11168,6.38689.04014,9.58043.045q12.15729.01863,24.31464.00149a4.06561,4.06561,0,0,0,1.67025-.19866c-1.68756-3.3912-3.3305-6.72588-5.07451-10.13-3.84-.20511-7.64979.0765-11.47291-.16084.32414-1.62583,25.46505-42.03767,26.38531-42.58083.59432.0657.84211.55091,1.10964.9858,6.38786,10.38421,12.84458,20.72562,19.25855,31.09361q6.18267,9.99411,12.37522,19.98214a1.95926,1.95926,0,0,0,1.86313,1.0205q23.65586-.01608,47.31173-.00891a1.2554,1.2554,0,0,0,.79341-.16763c-10.62638-17.12276-21.2-34.23368-31.94233-51.49765-1.18683,1.55344-1.99214,3.06242-2.93238,4.47534-.7522,1.13031-1.38906,2.341-2.17611,3.4461a2.181,2.181,0,0,0-.03359,2.74013c3.022,4.80451,5.99763,9.63831,8.99094,14.461,2.97227,4.78875,5.92058,9.59243,8.91243,14.369a2.2921,2.2921,0,0,1,.48064,1.34111c-.35148.526-.90974.42263-1.40811.42335-7.506.0108-15.012-.0001-22.51795.017a2.29908,2.29908,0,0,1-2.1554-1.20967q-6.3692-10.30178-12.75582-20.59277-9.82621-15.84817-19.65584-31.69425c-1.89734-3.05576-3.71962-6.15965-5.77191-9.11783a.30189.30189,0,0,1,.0193-.3541h37.85c.15279.58233-.22531.99-.49163,1.41891-3.91948,6.31284-7.81658,12.6396-11.74851,18.94471-1.03379,1.65774-2.12672,3.2821-3.0836,5.15078,1.62244,2.92006,3.50532,5.71877,5.44672,8.8536,5.27824-8.35176,10.37407-16.52509,15.46585-24.68227a15.63586,15.63586,0,0,0-1.871-3.29809c-1.08344-1.7722-2.17893-3.53752-3.26663-5.30736C971.11848,502.47705,970.79075,502.15474,971.10546,501.72Z" transform="translate(-887.5 -501.72)"/><path class="cls-1" d="M887.73956,575.16H887.5V501.72h45.51587v.24c.2102.63216-.22143,1.06444-.50476,1.52185q-11.89109,19.19709-23.79688,38.385-9.84344,15.88455-19.69712,31.76277C888.66942,574.19079,888.42456,574.8687,887.73956,575.16Z" transform="translate(-887.5 -501.72)"/><path d="M971.10546,501.72c.03238.14748-.05469.30038.0807.44848a20.07844,20.07844,0,0,1,1.77492,2.743c.65387,1.00064,1.24341,2.04326,1.87224,3.06061.68735,1.112,1.38759,2.216,2.05586,3.28154a12.67893,12.67893,0,0,1-1.23491,1.98051c-.80337,1.22347-1.56573,2.47411-2.34477,3.71179q-2.03563,3.23409-4.05973,6.47566-1.99321,3.19164-3.99934,6.37573c-.95671,1.515-1.80506,3.09967-2.78765,4.59666a9.54686,9.54686,0,0,1-1.55963,2.14305l-5.79646-9.29367c1.20741-1.8966,2.3501-3.91054,3.63485-5.83984.99242-1.49031,1.84546-3.0731,2.78563-4.59922.8653-1.4046,1.7748-2.78182,2.645-4.18346.72892-1.17408,1.42065-2.37128,2.14464-3.5485.687-1.11711,1.40131-2.21736,2.09122-3.33271.82616-1.33561,1.63919-2.67937,2.4579-4.0196Z" transform="translate(-887.5 -501.72)"/><path d="M887.73956,575.16q1.05785-1.71979,2.11547-3.43974c.76264-1.24245,1.51894-2.48883,2.28655-3.72818.67041-1.08239,1.35793-2.15415,2.02833-3.23656.76761-1.23935,1.52009-2.4881,2.2877-3.72745.67041-1.08241,1.35793-2.15416,2.02834-3.23656.76761-1.23935,1.51756-2.48972,2.28862-3.72688.59509-.95481,1.22266-1.88934,1.81464-2.846.78847-1.27422,1.62325-2.52543,2.37035-3.81771,1.25187-2.1654,2.59714-4.27493,3.90689-6.40023.88345-1.43356,1.798-2.86829,2.69668-4.29625.95018-1.50981,1.86313-3.06143,2.81357-4.57012.899-1.42707,1.78662-2.87388,2.68881-4.3.954-1.50809,1.89864-3.03468,2.80912-4.57611.83663-1.41641,1.722-2.81592,2.63587-4.19215.99242-1.49461,1.89733-3.04755,2.83937-4.57569q1.29512-2.10086,2.58777-4.2032,1.14471-1.86321,2.28572-3.72869c.64655-1.05141,1.25058-2.13373,1.96656-3.13557.33433-.46781.52586-.99066.82595-1.46285.3684-.056.56535.14179.722.449.63068,1.23681,1.43821,2.3654,2.17587,3.53691.71793,1.14017,1.44978,2.27286,2.12691,3.43721,1.25866,2.1643,2.57891,4.29523,3.9244,6.40038,1.31394,2.05578,2.59134,4.14008,3.89612,6.2004,1.1931,1.884,2.35019,3.80813,3.49251,5.73056.99342,1.67183,2.06051,3.31949,3.13317,4.95332.77648,1.18269,1.47152,2.42667,2.22483,3.63016.65513,1.04662,1.30133,2.09887,1.94828,3.1506.74453,1.21035,1.481,2.42572,2.22943,3.63361.69059,1.11447,1.3982,2.21835,2.08784,3.3334.74727,1.20821,1.47948,2.42576,2.22372,3.63586q1,1.62591,2.01307,3.2437c.7597,1.20594,1.546,2.39525,2.29377,3.6085.66528,1.07946,1.24442,2.215,1.951,3.26546.85882,1.27685,1.665,2.58284,2.44629,3.90661a1.5047,1.5047,0,0,0,.25068.257c8.3318.00047,16.66359.00047,25.061.00047-.71785-1.4-1.59449-2.63883-2.388-3.92754-.72521-1.17787-1.43932-2.3626-2.164-3.54077-.68633-1.11577-1.37969-2.2272-2.0707-3.34008-.78982-1.272-1.58635-2.53994-2.36885-3.81648-.60491-.98684-1.17268-1.997-1.79312-2.97368-.76636-1.20643-1.64707-2.34645-2.33489-3.59453-.61493-1.11583-1.31961-2.1694-1.97719-3.25457-.77663-1.28165-1.6-2.53476-2.38791-3.80969-.64813-1.0488-1.274-2.11141-1.91764-3.181.03122-.12846-.02057-.26881.07967-.42945q3.00321-4.81308,5.98187-9.64249a6.08342,6.08342,0,0,1,1.35295,1.98581c1.31963,2.08344,2.6088,4.18729,3.89525,6.29085,1.01621,1.66164,2.03887,3.335,3.15547,4.94318.849,1.22279,1.53,2.56172,2.30589,3.83666.604.99249,1.241,1.96482,1.85994,2.94824.73824,1.17294,1.47751,2.34526,2.20777,3.52317.70932,1.14412,1.40774,2.295,2.11108,3.44286.762,1.24352,1.51954,2.48979,2.28756,3.72956.67076,1.08276,1.35864,2.15489,2.0294,3.23765.768,1.23976,1.51776,2.49093,2.29006,3.728.59622.955,1.23319,1.88475,1.81926,2.8458.78058,1.28,1.62787,2.524,2.37248,3.81817,1.24788,2.169,2.68576,4.21945,3.88571,6.41818.31812.58287.76044,1.12677,1.13746,1.68871-.98347.22743-40.699.32489-50.156.12071-.48812-.80569-.96615-1.60758-1.45677-2.40166q-1.23972-2.00649-2.49245-4.00492-.95205-1.52517-1.90977-3.04676c-.719-1.14178-1.49254-2.25286-2.14731-3.43034-.60116-1.08107-1.28618-2.105-1.93408-3.154-.78757-1.27512-1.64225-2.511-2.38221-3.81274-1.2371-2.17626-2.57064-4.29776-3.908-6.40579-1.30659-2.05949-2.57774-4.14692-3.89919-6.19868-1.2086-1.87654-2.35407-3.80727-3.493-5.73485-.58868-.99634-1.22808-1.97865-1.87038-2.95092-.76192-1.15332-1.448-2.35676-2.17276-3.53493q-1.02951-1.67365-2.07148-3.33959c-.81477-1.30238-1.65619-2.58859-2.4441-3.907a12.36812,12.36812,0,0,0-.84418-1.30612c-.2685-.06571-.36055.02814-.41859.12331-.739,1.212-1.46374,2.43282-2.20712,3.64212-.667,1.08506-1.35783,2.15538-2.02859,3.23815-.768,1.23976-1.51718,2.4913-2.29026,3.72786-.597.9549-1.24049,1.88106-1.82318,2.84437-.7761,1.28305-1.62971,2.52292-2.37354,3.81753-1.24667,2.16979-2.58887,4.28223-3.90378,6.4051-.88745,1.43277-1.79536,2.8702-2.69465,4.2985-.95114,1.51064-1.87095,3.05732-2.8155,4.57258-.872,1.39883-1.67735,2.846-2.628,4.20226-.85676,1.22229-1.59527,2.52981-2.3502,3.82071a5.88916,5.88916,0,0,1-1.05635,1.48051h11.69028c1.84839,3.70381,3.64992,7.31374,5.44223,10.90517-.21589.27992-.47442.164-.694.16412q-17.30476.00946-34.60952-.01152C888.357,575.38241,887.92517,575.67791,887.73956,575.16Z" transform="translate(-887.5 -501.72)"/><path d="M937.65679,575.56726l-5.59566-11.19263,10.73562-17.32353c2.20654,3.28089,4.16141,6.74158,6.31424,10.05938C945.30884,563.23709,941.53978,569.3104,937.65679,575.56726Z" transform="translate(-887.5 -501.72)"/></svg>